<?xml version="1.0" encoding="UTF-8" standalone="no"?>
<!-- Created with Inkscape (http://www.inkscape.org/) -->

<svg
   width="34.944515mm"
   height="16.026299mm"
   viewBox="0 0 34.944515 16.026299"
   version="1.1"
   id="svg1"
   xml:space="preserve"
   xmlns:inkscape="http://www.inkscape.org/namespaces/inkscape"
   xmlns:sodipodi="http://sodipodi.sourceforge.net/DTD/sodipodi-0.dtd"
   xmlns="http://www.w3.org/2000/svg"
   xmlns:svg="http://www.w3.org/2000/svg"><sodipodi:namedview
     id="namedview1"
     pagecolor="#ffffff"
     bordercolor="#000000"
     borderopacity="0.25"
     inkscape:showpageshadow="2"
     inkscape:pageopacity="0.0"
     inkscape:pagecheckerboard="0"
     inkscape:deskcolor="#d1d1d1"
     inkscape:document-units="mm"><inkscape:page
       x="0"
       y="0"
       width="34.944515"
       height="16.026299"
       id="page2"
       margin="0"
       bleed="0" /></sodipodi:namedview><defs
     id="defs1" /><g
     inkscape:label="Layer 1"
     inkscape:groupmode="layer"
     id="layer1"
     transform="translate(-72.081743,-134.47358)"><path
       style="fill:#55d400"
       d="m 97.1014,134.52697 c 3.53151,-0.0486 7.20931,-0.0675 8.1729,-0.0421 l 1.75196,0.0462 -2.8545,3.11513 -2.85449,3.11514 -4.374396,-2.5e-4 c -2.4059,-1.4e-4 -5.065938,0.012 -5.911195,0.027 -0.845242,0.015 -2.564791,0.0452 -3.821212,0.0672 l -2.284395,0.0399 2.877184,-3.1399 2.87719,-3.1399 z m -15.949403,9.74757 c 1.869845,0.014 5.508584,-0.0211 8.086074,-0.078 l 4.686364,-0.1034 -2.813303,3.21746 c -1.565377,1.79031 -2.981926,3.18582 -3.193563,3.14601 -0.20916,-0.0393 -3.070209,-0.0381 -6.357885,0.003 -3.287676,0.0408 -6.765162,0.0526 -7.727768,0.0261 l -1.750173,-0.0482 2.83525,-3.09413 2.835242,-3.09412 z"
       id="path1"
       sodipodi:nodetypes="sscccssscccsssccssscccs" /></g></svg>
